<mxfile host="app.diagrams.net" modified="2022-08-15T02:59:04.271Z" agent="5.0 (Windows NT 10.0; Win64; x64) AppleWebKit/537.36 (KHTML, like Gecko) Chrome/104.0.0.0 Safari/537.36" etag="kNm8pY-ex7cFLxr-tqAr" version="20.2.3" type="github">
  <diagram id="nWWAhru72yuYRSVFmqOf" name="第 1 页">
    <mxGraphModel dx="1529" dy="1602" grid="1" gridSize="10" guides="1" tooltips="1" connect="1" arrows="1" fold="1" page="1" pageScale="1" pageWidth="827" pageHeight="1169" math="0" shadow="0">
      <root>
        <mxCell id="0" />
        <mxCell id="1" parent="0" />
        <mxCell id="VsKScOlT5vtX77vLj2YP-40" value="FbxFileReader" style="swimlane;fontStyle=0;childLayout=stackLayout;horizontal=1;startSize=30;horizontalStack=0;resizeParent=1;resizeParentMax=0;resizeLast=0;collapsible=1;marginBottom=0;" parent="1" vertex="1">
          <mxGeometry x="-180" y="140" width="180" height="60" as="geometry" />
        </mxCell>
        <mxCell id="VsKScOlT5vtX77vLj2YP-41" value="+ loadFromFile" style="text;strokeColor=none;fillColor=none;align=left;verticalAlign=middle;spacingLeft=4;spacingRight=4;overflow=hidden;points=[[0,0.5],[1,0.5]];portConstraint=eastwest;rotatable=0;" parent="VsKScOlT5vtX77vLj2YP-40" vertex="1">
          <mxGeometry y="30" width="180" height="30" as="geometry" />
        </mxCell>
        <mxCell id="VsKScOlT5vtX77vLj2YP-45" value="FileReader" style="swimlane;fontStyle=0;childLayout=stackLayout;horizontal=1;startSize=30;horizontalStack=0;resizeParent=1;resizeParentMax=0;resizeLast=0;collapsible=1;marginBottom=0;" parent="1" vertex="1">
          <mxGeometry x="370" y="170" width="140" height="60" as="geometry" />
        </mxCell>
        <mxCell id="VsKScOlT5vtX77vLj2YP-46" value="+ virtual loadFromFile" style="text;strokeColor=none;fillColor=none;align=left;verticalAlign=middle;spacingLeft=4;spacingRight=4;overflow=hidden;points=[[0,0.5],[1,0.5]];portConstraint=eastwest;rotatable=0;" parent="VsKScOlT5vtX77vLj2YP-45" vertex="1">
          <mxGeometry y="30" width="140" height="30" as="geometry" />
        </mxCell>
        <mxCell id="VsKScOlT5vtX77vLj2YP-52" value="ResourceManager" style="swimlane;fontStyle=0;childLayout=stackLayout;horizontal=1;startSize=30;horizontalStack=0;resizeParent=1;resizeParentMax=0;resizeLast=0;collapsible=1;marginBottom=0;strokeColor=default;strokeWidth=1;" parent="1" vertex="1">
          <mxGeometry x="570" y="170" width="140" height="120" as="geometry" />
        </mxCell>
        <mxCell id="VsKScOlT5vtX77vLj2YP-53" value="+ initData" style="text;strokeColor=none;fillColor=none;align=left;verticalAlign=middle;spacingLeft=4;spacingRight=4;overflow=hidden;points=[[0,0.5],[1,0.5]];portConstraint=eastwest;rotatable=0;" parent="VsKScOlT5vtX77vLj2YP-52" vertex="1">
          <mxGeometry y="30" width="140" height="30" as="geometry" />
        </mxCell>
        <mxCell id="VsKScOlT5vtX77vLj2YP-54" value="+ processData" style="text;strokeColor=none;fillColor=none;align=left;verticalAlign=middle;spacingLeft=4;spacingRight=4;overflow=hidden;points=[[0,0.5],[1,0.5]];portConstraint=eastwest;rotatable=0;" parent="VsKScOlT5vtX77vLj2YP-52" vertex="1">
          <mxGeometry y="60" width="140" height="30" as="geometry" />
        </mxCell>
        <mxCell id="VsKScOlT5vtX77vLj2YP-56" value="+ getRawData" style="text;strokeColor=none;fillColor=none;align=left;verticalAlign=middle;spacingLeft=4;spacingRight=4;overflow=hidden;points=[[0,0.5],[1,0.5]];portConstraint=eastwest;rotatable=0;" parent="VsKScOlT5vtX77vLj2YP-52" vertex="1">
          <mxGeometry y="90" width="140" height="30" as="geometry" />
        </mxCell>
        <mxCell id="VsKScOlT5vtX77vLj2YP-57" style="edgeStyle=orthogonalEdgeStyle;rounded=0;orthogonalLoop=1;jettySize=auto;html=1;exitX=1;exitY=0.5;exitDx=0;exitDy=0;" parent="1" source="VsKScOlT5vtX77vLj2YP-46" target="VsKScOlT5vtX77vLj2YP-53" edge="1">
          <mxGeometry relative="1" as="geometry" />
        </mxCell>
        <mxCell id="VsKScOlT5vtX77vLj2YP-67" value="AuthoringResource" style="swimlane;fontStyle=0;childLayout=stackLayout;horizontal=1;startSize=30;horizontalStack=0;resizeParent=1;resizeParentMax=0;resizeLast=0;collapsible=1;marginBottom=0;strokeColor=default;strokeWidth=1;" parent="1" vertex="1">
          <mxGeometry x="560" y="390" width="140" height="60" as="geometry" />
        </mxCell>
        <mxCell id="VsKScOlT5vtX77vLj2YP-68" value="data: fileReader、outDir" style="text;strokeColor=none;fillColor=none;align=left;verticalAlign=middle;spacingLeft=4;spacingRight=4;overflow=hidden;points=[[0,0.5],[1,0.5]];portConstraint=eastwest;rotatable=0;" parent="VsKScOlT5vtX77vLj2YP-67" vertex="1">
          <mxGeometry y="30" width="140" height="30" as="geometry" />
        </mxCell>
        <mxCell id="VsKScOlT5vtX77vLj2YP-72" style="edgeStyle=orthogonalEdgeStyle;rounded=0;orthogonalLoop=1;jettySize=auto;html=1;exitX=0;exitY=0.75;exitDx=0;exitDy=0;entryX=0;entryY=0.5;entryDx=0;entryDy=0;" parent="VsKScOlT5vtX77vLj2YP-67" source="VsKScOlT5vtX77vLj2YP-67" target="VsKScOlT5vtX77vLj2YP-68" edge="1">
          <mxGeometry relative="1" as="geometry" />
        </mxCell>
        <mxCell id="VsKScOlT5vtX77vLj2YP-73" value="AssetManager" style="swimlane;fontStyle=0;childLayout=stackLayout;horizontal=1;startSize=30;horizontalStack=0;resizeParent=1;resizeParentMax=0;resizeLast=0;collapsible=1;marginBottom=0;strokeColor=default;strokeWidth=1;" parent="1" vertex="1">
          <mxGeometry x="140" y="360" width="140" height="90" as="geometry" />
        </mxCell>
        <mxCell id="VsKScOlT5vtX77vLj2YP-74" value="+ dataProcess" style="text;strokeColor=none;fillColor=none;align=left;verticalAlign=middle;spacingLeft=4;spacingRight=4;overflow=hidden;points=[[0,0.5],[1,0.5]];portConstraint=eastwest;rotatable=0;" parent="VsKScOlT5vtX77vLj2YP-73" vertex="1">
          <mxGeometry y="30" width="140" height="30" as="geometry" />
        </mxCell>
        <mxCell id="VsKScOlT5vtX77vLj2YP-77" value="+ resourceOutput" style="text;strokeColor=none;fillColor=none;align=left;verticalAlign=middle;spacingLeft=4;spacingRight=4;overflow=hidden;points=[[0,0.5],[1,0.5]];portConstraint=eastwest;rotatable=0;" parent="VsKScOlT5vtX77vLj2YP-73" vertex="1">
          <mxGeometry y="60" width="140" height="30" as="geometry" />
        </mxCell>
        <mxCell id="VsKScOlT5vtX77vLj2YP-103" style="edgeStyle=orthogonalEdgeStyle;rounded=0;orthogonalLoop=1;jettySize=auto;html=1;exitX=0;exitY=0.5;exitDx=0;exitDy=0;entryX=1;entryY=0.5;entryDx=0;entryDy=0;dashed=1;" parent="VsKScOlT5vtX77vLj2YP-73" source="VsKScOlT5vtX77vLj2YP-74" target="VsKScOlT5vtX77vLj2YP-74" edge="1">
          <mxGeometry relative="1" as="geometry">
            <Array as="points">
              <mxPoint x="-20" y="45" />
              <mxPoint x="-20" y="-30" />
              <mxPoint x="160" y="-30" />
              <mxPoint x="160" y="45" />
            </Array>
          </mxGeometry>
        </mxCell>
        <mxCell id="VsKScOlT5vtX77vLj2YP-81" value="DataExporter" style="swimlane;fontStyle=0;childLayout=stackLayout;horizontal=1;startSize=30;horizontalStack=0;resizeParent=1;resizeParentMax=0;resizeLast=0;collapsible=1;marginBottom=0;strokeColor=default;strokeWidth=1;" parent="1" vertex="1">
          <mxGeometry x="-160" y="390" width="140" height="60" as="geometry" />
        </mxCell>
        <mxCell id="VsKScOlT5vtX77vLj2YP-82" value="+ outPutData" style="text;strokeColor=none;fillColor=none;align=left;verticalAlign=middle;spacingLeft=4;spacingRight=4;overflow=hidden;points=[[0,0.5],[1,0.5]];portConstraint=eastwest;rotatable=0;" parent="VsKScOlT5vtX77vLj2YP-81" vertex="1">
          <mxGeometry y="30" width="140" height="30" as="geometry" />
        </mxCell>
        <mxCell id="VsKScOlT5vtX77vLj2YP-85" style="edgeStyle=orthogonalEdgeStyle;rounded=0;orthogonalLoop=1;jettySize=auto;html=1;exitX=0;exitY=0.5;exitDx=0;exitDy=0;entryX=1;entryY=0.5;entryDx=0;entryDy=0;" parent="1" source="VsKScOlT5vtX77vLj2YP-77" target="VsKScOlT5vtX77vLj2YP-82" edge="1">
          <mxGeometry relative="1" as="geometry" />
        </mxCell>
        <mxCell id="VsKScOlT5vtX77vLj2YP-99" style="edgeStyle=orthogonalEdgeStyle;rounded=0;orthogonalLoop=1;jettySize=auto;html=1;exitX=0.5;exitY=0;exitDx=0;exitDy=0;entryX=1;entryY=0.5;entryDx=0;entryDy=0;" parent="1" source="VsKScOlT5vtX77vLj2YP-90" target="VsKScOlT5vtX77vLj2YP-74" edge="1">
          <mxGeometry relative="1" as="geometry" />
        </mxCell>
        <mxCell id="VsKScOlT5vtX77vLj2YP-90" value="FractureTools" style="swimlane;fontStyle=0;childLayout=stackLayout;horizontal=1;startSize=30;horizontalStack=0;resizeParent=1;resizeParentMax=0;resizeLast=0;collapsible=1;marginBottom=0;strokeColor=default;strokeWidth=1;" parent="1" vertex="1">
          <mxGeometry x="380" y="520" width="140" height="90" as="geometry" />
        </mxCell>
        <mxCell id="VsKScOlT5vtX77vLj2YP-91" value="+ preComputedFracture" style="text;strokeColor=none;fillColor=none;align=left;verticalAlign=middle;spacingLeft=4;spacingRight=4;overflow=hidden;points=[[0,0.5],[1,0.5]];portConstraint=eastwest;rotatable=0;" parent="VsKScOlT5vtX77vLj2YP-90" vertex="1">
          <mxGeometry y="30" width="140" height="30" as="geometry" />
        </mxCell>
        <mxCell id="VsKScOlT5vtX77vLj2YP-92" value="+ voroniFracture" style="text;strokeColor=none;fillColor=none;align=left;verticalAlign=middle;spacingLeft=4;spacingRight=4;overflow=hidden;points=[[0,0.5],[1,0.5]];portConstraint=eastwest;rotatable=0;" parent="VsKScOlT5vtX77vLj2YP-90" vertex="1">
          <mxGeometry y="60" width="140" height="30" as="geometry" />
        </mxCell>
        <mxCell id="VsKScOlT5vtX77vLj2YP-94" value="BondGernerator" style="swimlane;fontStyle=0;childLayout=stackLayout;horizontal=1;startSize=30;horizontalStack=0;resizeParent=1;resizeParentMax=0;resizeLast=0;collapsible=1;marginBottom=0;strokeColor=default;strokeWidth=1;" parent="1" vertex="1">
          <mxGeometry x="580" y="535" width="140" height="60" as="geometry" />
        </mxCell>
        <mxCell id="VsKScOlT5vtX77vLj2YP-95" value="+ bondGenerate" style="text;strokeColor=none;fillColor=none;align=left;verticalAlign=middle;spacingLeft=4;spacingRight=4;overflow=hidden;points=[[0,0.5],[1,0.5]];portConstraint=eastwest;rotatable=0;" parent="VsKScOlT5vtX77vLj2YP-94" vertex="1">
          <mxGeometry y="30" width="140" height="30" as="geometry" />
        </mxCell>
        <mxCell id="VsKScOlT5vtX77vLj2YP-104" value="circle" style="text;html=1;strokeColor=none;fillColor=none;align=center;verticalAlign=middle;whiteSpace=wrap;rounded=0;" parent="1" vertex="1">
          <mxGeometry x="170" y="300" width="60" height="30" as="geometry" />
        </mxCell>
        <mxCell id="VsKScOlT5vtX77vLj2YP-109" style="edgeStyle=orthogonalEdgeStyle;rounded=0;orthogonalLoop=1;jettySize=auto;html=1;exitX=1;exitY=0.5;exitDx=0;exitDy=0;entryX=0;entryY=0.5;entryDx=0;entryDy=0;dashed=1;strokeColor=default;" parent="1" source="VsKScOlT5vtX77vLj2YP-91" target="VsKScOlT5vtX77vLj2YP-94" edge="1">
          <mxGeometry relative="1" as="geometry" />
        </mxCell>
        <mxCell id="VsKScOlT5vtX77vLj2YP-112" value="" style="endArrow=classic;html=1;rounded=0;dashed=1;strokeColor=default;entryX=0.5;entryY=0;entryDx=0;entryDy=0;exitX=0.429;exitY=1;exitDx=0;exitDy=0;exitPerimeter=0;" parent="1" source="VsKScOlT5vtX77vLj2YP-56" target="VsKScOlT5vtX77vLj2YP-67" edge="1">
          <mxGeometry width="50" height="50" relative="1" as="geometry">
            <mxPoint x="630" y="330" as="sourcePoint" />
            <mxPoint x="680" y="280" as="targetPoint" />
          </mxGeometry>
        </mxCell>
        <mxCell id="VsKScOlT5vtX77vLj2YP-114" value="" style="endArrow=classic;html=1;rounded=0;dashed=1;strokeColor=default;exitX=0;exitY=0.25;exitDx=0;exitDy=0;entryX=1;entryY=0.5;entryDx=0;entryDy=0;" parent="1" source="VsKScOlT5vtX77vLj2YP-67" target="VsKScOlT5vtX77vLj2YP-74" edge="1">
          <mxGeometry width="50" height="50" relative="1" as="geometry">
            <mxPoint x="550" y="430" as="sourcePoint" />
            <mxPoint x="600" y="380" as="targetPoint" />
          </mxGeometry>
        </mxCell>
        <mxCell id="TJAnc9LzpgpTrCQkp3q7-2" value="DynamicData" style="swimlane;fontStyle=0;childLayout=stackLayout;horizontal=1;startSize=30;horizontalStack=0;resizeParent=1;resizeParentMax=0;resizeLast=0;collapsible=1;marginBottom=0;" vertex="1" parent="1">
          <mxGeometry x="140" y="510" width="140" height="60" as="geometry" />
        </mxCell>
        <mxCell id="TJAnc9LzpgpTrCQkp3q7-7" value="" style="endArrow=classic;html=1;rounded=0;exitX=0.5;exitY=1.067;exitDx=0;exitDy=0;exitPerimeter=0;dashed=1;" edge="1" parent="1" source="VsKScOlT5vtX77vLj2YP-77" target="TJAnc9LzpgpTrCQkp3q7-2">
          <mxGeometry width="50" height="50" relative="1" as="geometry">
            <mxPoint x="230" y="780" as="sourcePoint" />
            <mxPoint x="280" y="730" as="targetPoint" />
          </mxGeometry>
        </mxCell>
        <mxCell id="TJAnc9LzpgpTrCQkp3q7-8" value="process" style="text;html=1;strokeColor=none;fillColor=none;align=center;verticalAlign=middle;whiteSpace=wrap;rounded=0;" vertex="1" parent="1">
          <mxGeometry x="160" y="460" width="60" height="30" as="geometry" />
        </mxCell>
        <mxCell id="TJAnc9LzpgpTrCQkp3q7-9" value="Node" style="swimlane;fontStyle=0;childLayout=stackLayout;horizontal=1;startSize=30;horizontalStack=0;resizeParent=1;resizeParentMax=0;resizeLast=0;collapsible=1;marginBottom=0;" vertex="1" parent="1">
          <mxGeometry x="150" y="170" width="140" height="60" as="geometry" />
        </mxCell>
        <mxCell id="TJAnc9LzpgpTrCQkp3q7-12" value="data: mesh、hierarchy" style="text;strokeColor=none;fillColor=none;align=left;verticalAlign=middle;spacingLeft=4;spacingRight=4;overflow=hidden;points=[[0,0.5],[1,0.5]];portConstraint=eastwest;rotatable=0;" vertex="1" parent="TJAnc9LzpgpTrCQkp3q7-9">
          <mxGeometry y="30" width="140" height="30" as="geometry" />
        </mxCell>
        <mxCell id="TJAnc9LzpgpTrCQkp3q7-13" value="" style="endArrow=classic;html=1;rounded=0;dashed=1;exitX=1;exitY=0.5;exitDx=0;exitDy=0;entryX=0;entryY=0.25;entryDx=0;entryDy=0;" edge="1" parent="1" source="VsKScOlT5vtX77vLj2YP-41" target="TJAnc9LzpgpTrCQkp3q7-9">
          <mxGeometry width="50" height="50" relative="1" as="geometry">
            <mxPoint x="160" y="510" as="sourcePoint" />
            <mxPoint x="210" y="460" as="targetPoint" />
          </mxGeometry>
        </mxCell>
        <mxCell id="TJAnc9LzpgpTrCQkp3q7-14" value="" style="endArrow=classic;html=1;rounded=0;dashed=1;entryX=0;entryY=0.25;entryDx=0;entryDy=0;exitX=1;exitY=0.25;exitDx=0;exitDy=0;" edge="1" parent="1" source="TJAnc9LzpgpTrCQkp3q7-9" target="VsKScOlT5vtX77vLj2YP-45">
          <mxGeometry width="50" height="50" relative="1" as="geometry">
            <mxPoint x="420" y="540" as="sourcePoint" />
            <mxPoint x="470" y="490" as="targetPoint" />
          </mxGeometry>
        </mxCell>
        <mxCell id="TJAnc9LzpgpTrCQkp3q7-15" value="OtherRes" style="swimlane;fontStyle=0;childLayout=stackLayout;horizontal=1;startSize=30;horizontalStack=0;resizeParent=1;resizeParentMax=0;resizeLast=0;collapsible=1;marginBottom=0;" vertex="1" parent="1">
          <mxGeometry x="150" y="70" width="140" height="60" as="geometry" />
        </mxCell>
        <mxCell id="TJAnc9LzpgpTrCQkp3q7-19" value="" style="endArrow=classic;html=1;rounded=0;dashed=1;exitX=1;exitY=0.75;exitDx=0;exitDy=0;" edge="1" parent="1" source="VsKScOlT5vtX77vLj2YP-40">
          <mxGeometry width="50" height="50" relative="1" as="geometry">
            <mxPoint x="180" y="450" as="sourcePoint" />
            <mxPoint x="150" y="80" as="targetPoint" />
          </mxGeometry>
        </mxCell>
        <mxCell id="TJAnc9LzpgpTrCQkp3q7-20" value="" style="endArrow=classic;html=1;rounded=0;dashed=1;exitX=1;exitY=0.25;exitDx=0;exitDy=0;entryX=0;entryY=0.25;entryDx=0;entryDy=0;" edge="1" parent="1" source="TJAnc9LzpgpTrCQkp3q7-15" target="VsKScOlT5vtX77vLj2YP-45">
          <mxGeometry width="50" height="50" relative="1" as="geometry">
            <mxPoint x="330" y="440" as="sourcePoint" />
            <mxPoint x="380" y="390" as="targetPoint" />
          </mxGeometry>
        </mxCell>
      </root>
    </mxGraphModel>
  </diagram>
</mxfile>
